<?xml version="1.0" encoding="UTF-8" standalone="no"?>
<!DOCTYPE svg PUBLIC "-//W3C//DTD SVG 1.1//EN" "http://www.w3.org/Graphics/SVG/1.1/DTD/svg11.dtd">
<svg xmlns="http://www.w3.org/2000/svg" version="1.1" viewBox="0.00 0.00 500.00 500.00">
<clipPath id="clipping-path-0">
<path d="
  M 0.00 0.00
  L 500.00 0.00
  L 500.00 500.00
  L 0.00 500.00
  L 0.00 0.00
  Z"/>
</clipPath>
<g stroke-width="5.00" fill="none" stroke-linecap="butt" clip-path="url(#clipping-path-0)">
<path stroke="#395f73" vector-effect="non-scaling-stroke" d="
  M 273.36 228.77
  Q 304.43 228.87 335.50 228.52
  C 348.22 228.38 359.34 217.81 353.86 204.44"
/>
<path stroke="#81949f" vector-effect="non-scaling-stroke" d="
  M 353.86 204.44
  Q 353.30 201.23 351.03 197.97"
/>
<path stroke="#395f73" vector-effect="non-scaling-stroke" d="
  M 351.03 197.97
  L 347.01 192.63"
/>
<path stroke="#81949f" vector-effect="non-scaling-stroke" d="
  M 347.01 192.63
  C 347.61 189.57 349.00 181.77 347.75 179.29
  Q 347.47 178.73 347.47 179.35
  Q 347.43 186.11 344.82 192.12
  Q 342.87 196.63 339.01 199.53
  Q 331.64 205.07 322.76 204.45
  Q 315.43 203.94 319.27 205.91"
/>
<path stroke="#395f73" vector-effect="non-scaling-stroke" d="
  M 319.27 205.91
  Q 316.87 210.48 311.75 213.92"
/>
<path stroke="#5f7d8b" vector-effect="non-scaling-stroke" d="
  M 173.92 220.46
  Q 172.22 221.87 171.14 224.26"
/>
<path stroke="#395f73" vector-effect="non-scaling-stroke" d="
  M 171.14 224.26
  Q 165.42 235.86 173.47 246.32
  Q 175.08 248.43 176.76 250.51
  Q 176.88 250.65 177.04 250.58
  Q 177.18 250.51 177.29 250.45
  Q 177.53 250.32 177.58 250.59
  Q 177.68 251.12 178.01 251.27"
/>
<path stroke="#81949f" vector-effect="non-scaling-stroke" d="
  M 178.01 251.27
  Q 177.79 253.31 178.27 255.28
  Q 178.41 255.85 178.56 255.28
  C 180.87 246.70 185.53 241.34 192.31 235.93"
/>
<path stroke="#395f73" vector-effect="non-scaling-stroke" d="
  M 192.31 235.93
  Q 193.01 235.71 192.74 236.98
  C 192.54 237.89 192.16 238.62 192.17 239.53
  Q 192.32 249.03 192.37 258.54"
/>
<path stroke="#5f7d8b" vector-effect="non-scaling-stroke" d="
  M 192.37 258.54
  L 192.88 281.82"
/>
<path stroke="#395f73" vector-effect="non-scaling-stroke" d="
  M 192.88 281.82
  Q 194.88 292.11 197.98 298.49
  Q 205.26 313.52 220.39 324.10
  C 261.83 353.08 320.29 332.26 331.21 282.00
  Q 332.54 275.88 331.86 264.20"
/>
<path stroke="#096c82" vector-effect="non-scaling-stroke" d="
  M 303.38 197.33
  L 317.92 197.51
  A 0.30 0.30 0.0 0 0 318.23 197.20
  Q 318.04 184.37 317.87 171.50
  Q 317.81 166.83 317.13 162.60"
/>
<path stroke="#085a79" vector-effect="non-scaling-stroke" d="
  M 317.13 162.60
  Q 316.38 157.04 314.09 152.47"
/>
<path stroke="#05445e" vector-effect="non-scaling-stroke" d="
  M 314.09 152.47
  C 313.04 149.65 310.80 143.94 308.24 142.34
  Q 307.89 142.12 307.63 141.78
  L 302.70 135.31
  A 6.28 5.83 1.7 0 0 301.56 134.19
  L 289.40 125.03
  A 0.77 0.75 58.3 0 0 288.80 124.88
  Q 287.49 125.11 285.99 124.00
  Q 284.68 123.02 280.05 121.20
  Q 276.85 119.95 273.75 119.42
  C 264.86 117.91 253.58 117.38 245.01 120.40
  Q 239.33 122.40 232.14 126.41
  Q 231.95 126.51 231.85 126.72
  Q 231.71 127.02 231.42 127.20
  Q 222.13 133.05 216.18 142.07"
/>
<path stroke="#085a79" vector-effect="non-scaling-stroke" d="
  M 216.18 142.07
  C 208.14 152.86 205.86 163.23 206.18 176.71
  Q 206.20 177.29 205.62 177.22
  L 205.12 177.15
  Q 204.72 177.10 204.72 176.69
  L 204.74 170.03"
/>
<path stroke="#395f73" vector-effect="non-scaling-stroke" d="
  M 204.74 170.03
  C 205.24 147.82 220.80 128.84 240.22 120.67
  C 270.83 107.78 307.07 125.01 317.34 156.41
  C 319.44 162.83 319.75 170.30 319.75 177.25
  Q 319.75 186.78 319.78 196.76
  Q 319.78 197.50 320.52 197.50
  L 331.50 197.48
  Q 332.03 197.48 332.03 196.94
  L 331.91 183.95"
/>
<path stroke="#5f7d8b" vector-effect="non-scaling-stroke" d="
  M 331.91 183.95
  L 331.62 171.12"
/>
<path stroke="#395f73" vector-effect="non-scaling-stroke" d="
  M 192.73 170.75
  Q 192.42 170.72 192.33 171.35
  Q 191.83 174.85 192.64 177.64"
/>
<path stroke="#0a7598" vector-effect="non-scaling-stroke" d="
  M 314.09 152.47
  Q 312.78 152.05 312.37 150.36
  A 1.06 1.04 -88.1 0 0 311.68 149.61
  Q 310.77 149.31 310.60 148.50
  Q 310.50 148.01 310.14 147.66
  Q 306.82 144.47 302.88 138.87
  Q 301.77 137.29 299.22 136.92
  A 0.60 0.60 0.0 0 1 298.72 136.46
  Q 298.49 135.41 297.52 135.12
  Q 297.02 134.98 296.66 134.62
  Q 293.22 131.20 288.54 129.84
  Q 288.03 129.70 287.66 129.32
  Q 286.24 127.90 285.25 127.65
  Q 281.39 126.69 278.00 124.60
  Q 277.62 124.37 277.19 124.37
  C 274.19 124.37 271.84 123.03 268.73 123.10
  Q 268.25 123.11 267.86 122.83
  Q 267.09 122.31 266.38 122.63
  Q 265.20 123.16 264.30 123.03
  C 261.17 122.57 257.52 122.87 254.33 122.87
  Q 253.99 122.87 253.79 123.15
  Q 253.65 123.34 253.25 123.35
  C 251.43 123.40 249.72 124.39 247.76 124.37
  Q 247.35 124.36 246.98 124.57
  Q 243.39 126.58 239.37 127.49
  Q 238.86 127.60 238.52 128.01
  Q 238.09 128.53 237.39 128.67
  Q 237.06 128.74 236.75 128.89
  L 225.54 134.35
  Q 224.06 135.07 221.81 137.63
  C 221.11 138.44 219.97 139.59 218.59 140.40
  Q 217.43 141.07 216.18 142.07"
/>
<path stroke="#b7cad3" vector-effect="non-scaling-stroke" d="
  M 197.04 232.51
  L 192.31 235.93"
/>
<path stroke="#b7cad3" vector-effect="non-scaling-stroke" d="
  M 351.03 197.97
  Q 350.24 201.66 348.74 204.21
  C 341.39 216.63 329.98 214.10 317.15 214.35"
/>
<path stroke="#95b3bf" vector-effect="non-scaling-stroke" d="
  M 326.63 264.21
  Q 326.83 270.25 326.25 276.16
  C 325.84 280.44 324.22 284.47 322.99 288.70
  C 319.76 299.76 311.34 309.71 302.64 316.96
  C 296.62 321.97 285.95 326.73 279.25 328.48
  C 261.78 333.05 246.95 330.44 230.82 323.03
  C 221.82 318.89 216.68 313.03 209.91 305.06
  Q 202.45 296.29 199.27 283.37
  Q 199.06 282.55 198.61 282.26
  Q 198.08 281.92 197.32 282.17
  A 1.18 1.14 49.0 0 1 196.42 282.09
  Q 194.92 281.28 192.88 281.82"
/>
<path stroke="#395f73" vector-effect="non-scaling-stroke" d="
  M 229.22 228.99
  Q 215.62 228.71 202.00 229.16
  Q 200.70 229.21 199.50 229.74
  Q 198.89 230.01 199.55 230.10
  L 202.10 230.46"
/>
<path stroke="#b7cad3" vector-effect="non-scaling-stroke" d="
  M 202.10 230.46
  C 199.92 230.71 197.53 230.38 195.63 230.68
  C 185.47 232.31 177.73 240.64 178.01 251.27"
/>
<path stroke="#b7cad3" vector-effect="non-scaling-stroke" d="
  M 353.86 204.44
  C 352.94 215.76 343.78 221.24 333.25 221.21
  C 328.14 221.20 323.00 220.99 317.89 221.15
  Q 315.22 221.23 315.15 219.63"
/>
<path stroke="#95b3bf" vector-effect="non-scaling-stroke" d="
  M 325.64 170.10
  L 325.49 184.46
  A 0.45 0.44 -2.9 0 0 325.99 184.90
  L 330.48 184.34
  Q 330.60 184.33 330.68 184.42
  Q 330.79 184.54 330.91 184.65
  Q 331.30 185.01 331.63 184.59
  Q 331.82 184.35 331.91 183.95"
/>
<path stroke="#3d90ad" vector-effect="non-scaling-stroke" d="
  M 204.74 170.03
  L 204.49 177.77"
/>
<path stroke="#95b3bf" vector-effect="non-scaling-stroke" d="
  M 205.95 282.74
  Q 204.61 281.06 202.87 282.43
  A 1.41 1.41 0.0 0 1 200.73 281.94
  Q 198.84 278.12 198.83 273.25
  Q 198.80 263.57 198.69 253.85
  A 0.80 0.80 0.0 0 0 197.80 253.06
  L 194.45 253.46
  Q 194.04 253.51 193.88 253.88
  Q 193.57 254.59 192.98 255.03
  Q 192.57 255.33 192.54 255.84
  L 192.37 258.54"
/>
<path stroke="#0d9dbc" vector-effect="non-scaling-stroke" d="
  M 317.13 162.60
  C 315.60 161.09 314.55 158.23 312.65 157.48
  Q 312.38 157.38 312.38 157.08
  Q 312.38 156.92 312.38 156.76
  Q 312.37 156.38 311.99 156.39
  Q 311.32 156.40 310.98 155.97
  Q 310.65 155.56 310.57 155.48
  Q 308.42 153.48 306.73 151.09
  Q 305.86 149.85 304.62 148.75
  C 303.12 147.42 302.13 145.85 300.46 144.68
  C 298.83 143.53 297.39 141.78 296.12 140.75
  C 294.80 139.67 293.05 137.97 291.36 137.66
  Q 290.86 137.56 291.26 137.87
  L 292.55 138.87
  Q 292.95 139.18 292.44 139.20
  Q 292.08 139.22 291.73 139.05
  Q 291.41 138.89 291.05 138.90
  Q 289.91 138.94 289.32 138.08
  Q 289.06 137.69 288.60 137.63
  Q 287.63 137.49 286.93 138.13
  Q 286.63 138.40 286.26 138.23
  L 285.75 137.99
  Q 285.11 137.70 285.26 138.38
  L 285.57 139.83"
/>
<path stroke="#95b3bf" vector-effect="non-scaling-stroke" d="
  M 178.02 226.67
  Q 175.20 232.60 175.07 237.28
  Q 175.01 239.72 174.14 237.43
  C 172.98 234.39 171.15 230.38 171.11 227.24
  Q 171.09 225.76 171.14 224.26"
/>
<path stroke="#b7cad3" vector-effect="non-scaling-stroke" d="
  M 347.01 192.63
  Q 346.18 194.65 345.43 196.51
  C 341.10 207.24 329.37 207.23 319.27 205.91"
/>
<path stroke="#05445e" vector-effect="non-scaling-stroke" d="
  M 220.10 245.07
  Q 217.13 245.57 214.20 245.16
  Q 211.94 244.85 210.36 245.36
  Q 208.33 246.02 206.31 246.79
  A 0.74 0.72 79.3 0 0 205.84 247.49
  L 206.20 260.93"
/>
<path stroke="#096c82" vector-effect="non-scaling-stroke" d="
  M 206.20 260.93
  C 206.33 266.79 205.87 273.09 206.82 278.33
  C 209.66 294.09 218.58 306.22 231.97 314.58
  C 243.96 322.08 258.38 324.22 272.47 321.90
  C 282.22 320.30 290.69 316.02 298.35 310.00
  C 300.77 308.10 302.88 305.49 305.11 303.17
  C 311.83 296.15 315.84 287.01 317.65 277.50
  Q 318.37 273.71 317.93 263.90"
/>
<path stroke="#5f7d8b" vector-effect="non-scaling-stroke" d="
  M 319.73 264.31
  C 319.53 268.04 319.79 272.30 319.41 275.57
  C 318.29 285.08 313.62 296.43 307.04 303.04
  C 304.04 306.06 301.21 309.49 297.96 311.94
  Q 288.75 318.90 279.99 321.43
  Q 265.17 325.72 247.30 322.49
  C 239.06 321.00 229.93 315.30 223.74 310.17
  C 220.33 307.34 217.31 303.49 214.31 299.93
  Q 209.38 294.08 205.95 282.74"
/>
<path stroke="#395f73" vector-effect="non-scaling-stroke" d="
  M 205.95 282.74
  C 203.61 270.48 206.53 257.36 203.28 245.85
  Q 201.26 238.65 197.04 232.51"
/>
<path stroke="#81949f" vector-effect="non-scaling-stroke" d="
  M 197.04 232.51
  Q 200.45 231.19 205.03 231.73
  Q 207.07 231.98 205.10 231.38
  L 202.10 230.46"
/>
<path stroke="#0b86a1" vector-effect="non-scaling-stroke" d="
  M 220.01 256.96
  Q 210.07 254.29 206.20 260.93"
/>
</g>
<path fill="#03293f" d="
  M 273.36 228.77
  Q 304.43 228.87 335.50 228.52
  C 348.22 228.38 359.34 217.81 353.86 204.44
  Q 353.30 201.23 351.03 197.97
  L 347.01 192.63
  C 347.61 189.57 349.00 181.77 347.75 179.29
  Q 347.47 178.73 347.47 179.35
  Q 347.43 186.11 344.82 192.12
  Q 342.87 196.63 339.01 199.53
  Q 331.64 205.07 322.76 204.45
  Q 315.43 203.94 319.27 205.91
  Q 316.87 210.48 311.75 213.92
  L 273.86 214.13
  Q 273.46 214.13 273.46 213.73
  Q 273.33 197.58 273.35 181.42
  C 273.36 175.80 272.49 172.28 267.97 169.27
  C 259.62 163.71 250.45 170.52 250.50 180.00
  Q 250.58 196.78 250.46 213.56
  Q 250.46 214.09 249.93 214.09
  Q 200.05 213.84 187.18 214.09
  Q 179.64 214.24 173.92 220.46
  Q 172.22 221.87 171.14 224.26
  Q 165.42 235.86 173.47 246.32
  Q 175.08 248.43 176.76 250.51
  Q 176.88 250.65 177.04 250.58
  Q 177.18 250.51 177.29 250.45
  Q 177.53 250.32 177.58 250.59
  Q 177.68 251.12 178.01 251.27
  Q 177.79 253.31 178.27 255.28
  Q 178.41 255.85 178.56 255.28
  C 180.87 246.70 185.53 241.34 192.31 235.93
  Q 193.01 235.71 192.74 236.98
  C 192.54 237.89 192.16 238.62 192.17 239.53
  Q 192.32 249.03 192.37 258.54
  L 192.88 281.82
  Q 194.88 292.11 197.98 298.49
  Q 205.26 313.52 220.39 324.10
  C 261.83 353.08 320.29 332.26 331.21 282.00
  Q 332.54 275.88 331.86 264.20
  L 346.15 264.10
  A 0.45 0.45 0.0 0 1 346.60 264.55
  C 346.65 273.97 346.87 281.56 344.22 291.89
  C 341.19 303.72 334.73 315.29 326.17 324.01
  C 323.92 326.31 321.77 328.98 319.58 330.96
  C 295.78 352.36 260.78 358.40 230.86 346.80
  C 226.02 344.92 221.27 343.26 216.96 340.57
  C 195.23 327.03 177.80 302.99 177.18 276.56
  Q 177.10 273.14 177.09 269.72
  A 0.92 0.90 -76.8 0 0 176.61 268.93
  C 165.52 262.99 157.87 255.39 154.90 242.71
  C 150.48 223.78 158.51 205.87 177.26 199.05
  Q 181.23 197.60 185.51 197.54
  Q 209.63 197.20 233.92 197.27
  A 0.37 0.37 0.0 0 0 234.29 196.90
  C 234.22 180.21 231.72 162.09 249.53 153.09
  C 259.69 147.95 269.06 149.35 278.38 155.52
  C 285.55 160.26 289.47 170.26 289.50 178.50
  Q 289.54 187.63 289.71 196.75
  Q 289.72 197.27 290.24 197.28
  L 303.38 197.33
  L 317.92 197.51
  A 0.30 0.30 0.0 0 0 318.23 197.20
  Q 318.04 184.37 317.87 171.50
  Q 317.81 166.83 317.13 162.60
  Q 316.38 157.04 314.09 152.47
  C 313.04 149.65 310.80 143.94 308.24 142.34
  Q 307.89 142.12 307.63 141.78
  L 302.70 135.31
  A 6.28 5.83 1.7 0 0 301.56 134.19
  L 289.40 125.03
  A 0.77 0.75 58.3 0 0 288.80 124.88
  Q 287.49 125.11 285.99 124.00
  Q 284.68 123.02 280.05 121.20
  Q 276.85 119.95 273.75 119.42
  C 264.86 117.91 253.58 117.38 245.01 120.40
  Q 239.33 122.40 232.14 126.41
  Q 231.95 126.51 231.85 126.72
  Q 231.71 127.02 231.42 127.20
  Q 222.13 133.05 216.18 142.07
  C 208.14 152.86 205.86 163.23 206.18 176.71
  Q 206.20 177.29 205.62 177.22
  L 205.12 177.15
  Q 204.72 177.10 204.72 176.69
  L 204.74 170.03
  C 205.24 147.82 220.80 128.84 240.22 120.67
  C 270.83 107.78 307.07 125.01 317.34 156.41
  C 319.44 162.83 319.75 170.30 319.75 177.25
  Q 319.75 186.78 319.78 196.76
  Q 319.78 197.50 320.52 197.50
  L 331.50 197.48
  Q 332.03 197.48 332.03 196.94
  L 331.91 183.95
  L 331.62 171.12
  Q 331.97 170.37 331.99 169.74
  C 332.66 148.30 319.86 126.89 302.49 115.49
  C 280.08 100.79 253.68 98.76 229.74 110.81
  C 225.61 112.89 221.65 114.62 218.16 117.62
  Q 208.22 126.16 200.96 137.13
  C 197.98 141.63 196.65 146.31 194.92 151.32
  Q 191.68 160.74 192.73 170.75
  Q 192.42 170.72 192.33 171.35
  Q 191.83 174.85 192.64 177.64
  L 177.65 177.75
  Q 177.15 177.76 177.13 177.25
  Q 176.68 164.13 177.29 157.50
  C 178.69 142.43 188.91 125.02 198.94 114.44
  C 206.20 106.78 218.84 96.95 230.03 93.58
  C 235.04 92.07 240.30 90.16 245.08 89.22
  Q 259.64 86.37 274.31 88.41
  C 279.93 89.19 286.08 91.19 292.00 92.94
  Q 295.88 94.08 298.82 95.55
  C 307.24 99.75 316.48 105.62 322.77 112.72
  C 324.06 114.17 325.69 115.31 326.86 116.65
  C 337.63 128.96 344.12 141.58 346.40 157.45
  C 347.27 163.46 346.94 169.93 346.75 176.17
  A 1.29 1.28 -78.4 0 0 347.56 177.41
  C 355.09 180.36 361.55 185.68 365.11 193.03
  C 366.25 195.39 367.70 197.71 368.45 200.08
  C 372.01 211.31 369.98 220.28 364.48 230.27
  C 359.03 240.18 345.27 245.32 334.50 245.20
  Q 312.35 244.96 290.21 244.90
  Q 289.64 244.90 289.65 245.47
  C 289.69 254.04 290.48 264.66 288.08 272.01
  C 282.01 290.64 258.41 297.57 243.36 283.88
  Q 240.27 281.08 238.29 277.66
  Q 234.22 270.62 234.23 263.76
  Q 234.25 249.99 234.27 236.29
  A 0.48 0.47 -90.0 0 1 234.74 235.81
  L 249.99 235.82
  Q 250.48 235.82 250.48 236.30
  Q 250.54 247.88 250.51 259.39
  Q 250.50 264.58 251.50 266.96
  C 256.52 278.79 273.43 274.67 273.38 262.00
  Q 273.33 245.62 273.36 228.77
  Z"
/>
<path fill="#6e95a6" d="
  M 325.64 170.10
  L 325.49 184.46
  A 0.45 0.44 -2.9 0 0 325.99 184.90
  L 330.48 184.34
  Q 330.60 184.33 330.68 184.42
  Q 330.79 184.54 330.91 184.65
  Q 331.30 185.01 331.63 184.59
  Q 331.82 184.35 331.91 183.95
  L 332.03 196.94
  Q 332.03 197.48 331.50 197.48
  L 320.52 197.50
  Q 319.78 197.50 319.78 196.76
  Q 319.75 186.78 319.75 177.25
  C 319.75 170.30 319.44 162.83 317.34 156.41
  C 307.07 125.01 270.83 107.78 240.22 120.67
  C 220.80 128.84 205.24 147.82 204.74 170.03
  L 204.49 177.77
  L 192.64 177.64
  Q 191.83 174.85 192.33 171.35
  Q 192.42 170.72 192.73 170.75
  L 197.30 170.54
  A 1.21 1.20 -2.2 0 0 198.45 169.31
  C 198.23 159.05 201.75 149.00 207.10 140.41
  C 209.75 136.17 213.82 131.92 217.50 127.87
  C 231.79 112.16 257.25 107.25 277.19 111.95
  C 283.79 113.50 290.82 115.85 297.06 120.05
  C 307.40 127.02 316.82 137.60 321.59 149.12
  Q 325.19 157.82 325.64 170.10
  Z"
/>
<path fill="#075e7c" d="
  M 314.09 152.47
  Q 312.78 152.05 312.37 150.36
  A 1.06 1.04 -88.1 0 0 311.68 149.61
  Q 310.77 149.31 310.60 148.50
  Q 310.50 148.01 310.14 147.66
  Q 306.82 144.47 302.88 138.87
  Q 301.77 137.29 299.22 136.92
  A 0.60 0.60 0.0 0 1 298.72 136.46
  Q 298.49 135.41 297.52 135.12
  Q 297.02 134.98 296.66 134.62
  Q 293.22 131.20 288.54 129.84
  Q 288.03 129.70 287.66 129.32
  Q 286.24 127.90 285.25 127.65
  Q 281.39 126.69 278.00 124.60
  Q 277.62 124.37 277.19 124.37
  C 274.19 124.37 271.84 123.03 268.73 123.10
  Q 268.25 123.11 267.86 122.83
  Q 267.09 122.31 266.38 122.63
  Q 265.20 123.16 264.30 123.03
  C 261.17 122.57 257.52 122.87 254.33 122.87
  Q 253.99 122.87 253.79 123.15
  Q 253.65 123.34 253.25 123.35
  C 251.43 123.40 249.72 124.39 247.76 124.37
  Q 247.35 124.36 246.98 124.57
  Q 243.39 126.58 239.37 127.49
  Q 238.86 127.60 238.52 128.01
  Q 238.09 128.53 237.39 128.67
  Q 237.06 128.74 236.75 128.89
  L 225.54 134.35
  Q 224.06 135.07 221.81 137.63
  C 221.11 138.44 219.97 139.59 218.59 140.40
  Q 217.43 141.07 216.18 142.07
  Q 222.13 133.05 231.42 127.20
  Q 231.71 127.02 231.85 126.72
  Q 231.95 126.51 232.14 126.41
  Q 239.33 122.40 245.01 120.40
  C 253.58 117.38 264.86 117.91 273.75 119.42
  Q 276.85 119.95 280.05 121.20
  Q 284.68 123.02 285.99 124.00
  Q 287.49 125.11 288.80 124.88
  A 0.77 0.75 58.3 0 1 289.40 125.03
  L 301.56 134.19
  A 6.28 5.83 1.7 0 1 302.70 135.31
  L 307.63 141.78
  Q 307.89 142.12 308.24 142.34
  C 310.80 143.94 313.04 149.65 314.09 152.47
  Z"
/>
<path fill="#0c8bb3" d="
  M 314.09 152.47
  Q 316.38 157.04 317.13 162.60
  C 315.60 161.09 314.55 158.23 312.65 157.48
  Q 312.38 157.38 312.38 157.08
  Q 312.38 156.92 312.38 156.76
  Q 312.37 156.38 311.99 156.39
  Q 311.32 156.40 310.98 155.97
  Q 310.65 155.56 310.57 155.48
  Q 308.42 153.48 306.73 151.09
  Q 305.86 149.85 304.62 148.75
  C 303.12 147.42 302.13 145.85 300.46 144.68
  C 298.83 143.53 297.39 141.78 296.12 140.75
  C 294.80 139.67 293.05 137.97 291.36 137.66
  Q 290.86 137.56 291.26 137.87
  L 292.55 138.87
  Q 292.95 139.18 292.44 139.20
  Q 292.08 139.22 291.73 139.05
  Q 291.41 138.89 291.05 138.90
  Q 289.91 138.94 289.32 138.08
  Q 289.06 137.69 288.60 137.63
  Q 287.63 137.49 286.93 138.13
  Q 286.63 138.40 286.26 138.23
  L 285.75 137.99
  Q 285.11 137.70 285.26 138.38
  L 285.57 139.83
  C 283.05 138.22 280.79 136.67 278.02 135.70
  Q 265.28 131.27 251.53 134.08
  C 238.16 136.81 228.18 146.43 222.69 158.57
  C 219.95 164.62 219.86 170.67 220.16 177.18
  A 0.51 0.51 0.0 0 1 219.65 177.72
  L 204.49 177.77
  L 204.74 170.03
  L 204.72 176.69
  Q 204.72 177.10 205.12 177.15
  L 205.62 177.22
  Q 206.20 177.29 206.18 176.71
  C 205.86 163.23 208.14 152.86 216.18 142.07
  Q 217.43 141.07 218.59 140.40
  C 219.97 139.59 221.11 138.44 221.81 137.63
  Q 224.06 135.07 225.54 134.35
  L 236.75 128.89
  Q 237.06 128.74 237.39 128.67
  Q 238.09 128.53 238.52 128.01
  Q 238.86 127.60 239.37 127.49
  Q 243.39 126.58 246.98 124.57
  Q 247.35 124.36 247.76 124.37
  C 249.72 124.39 251.43 123.40 253.25 123.35
  Q 253.65 123.34 253.79 123.15
  Q 253.99 122.87 254.33 122.87
  C 257.52 122.87 261.17 122.57 264.30 123.03
  Q 265.20 123.16 266.38 122.63
  Q 267.09 122.31 267.86 122.83
  Q 268.25 123.11 268.73 123.10
  C 271.84 123.03 274.19 124.37 277.19 124.37
  Q 277.62 124.37 278.00 124.60
  Q 281.39 126.69 285.25 127.65
  Q 286.24 127.90 287.66 129.32
  Q 288.03 129.70 288.54 129.84
  Q 293.22 131.20 296.66 134.62
  Q 297.02 134.98 297.52 135.12
  Q 298.49 135.41 298.72 136.46
  A 0.60 0.60 0.0 0 0 299.22 136.92
  Q 301.77 137.29 302.88 138.87
  Q 306.82 144.47 310.14 147.66
  Q 310.50 148.01 310.60 148.50
  Q 310.77 149.31 311.68 149.61
  A 1.06 1.04 -88.1 0 1 312.37 150.36
  Q 312.78 152.05 314.09 152.47
  Z"
/>
<path fill="#0eaec5" d="
  M 317.13 162.60
  Q 317.81 166.83 317.87 171.50
  Q 318.04 184.37 318.23 197.20
  A 0.30 0.30 0.0 0 1 317.92 197.51
  L 303.38 197.33
  Q 303.26 183.12 303.20 169.76
  Q 303.15 160.50 299.07 153.99
  Q 293.69 145.42 285.57 139.83
  L 285.26 138.38
  Q 285.11 137.70 285.75 137.99
  L 286.26 138.23
  Q 286.63 138.40 286.93 138.13
  Q 287.63 137.49 288.60 137.63
  Q 289.06 137.69 289.32 138.08
  Q 289.91 138.94 291.05 138.90
  Q 291.41 138.89 291.73 139.05
  Q 292.08 139.22 292.44 139.20
  Q 292.95 139.18 292.55 138.87
  L 291.26 137.87
  Q 290.86 137.56 291.36 137.66
  C 293.05 137.97 294.80 139.67 296.12 140.75
  C 297.39 141.78 298.83 143.53 300.46 144.68
  C 302.13 145.85 303.12 147.42 304.62 148.75
  Q 305.86 149.85 306.73 151.09
  Q 308.42 153.48 310.57 155.48
  Q 310.65 155.56 310.98 155.97
  Q 311.32 156.40 311.99 156.39
  Q 312.37 156.38 312.38 156.76
  Q 312.38 156.92 312.38 157.08
  Q 312.38 157.38 312.65 157.48
  C 314.55 158.23 315.60 161.09 317.13 162.60
  Z"
/>
<path fill="#bbd0d7" d="
  M 325.64 170.10
  Q 329.09 170.07 331.62 171.12
  L 331.91 183.95
  Q 331.82 184.35 331.63 184.59
  Q 331.30 185.01 330.91 184.65
  Q 330.79 184.54 330.68 184.42
  Q 330.60 184.33 330.48 184.34
  L 325.99 184.90
  A 0.45 0.44 -2.9 0 1 325.49 184.46
  L 325.64 170.10
  Z"
/>
<path fill="#ffffff" d="
  M 347.01 192.63
  Q 346.18 194.65 345.43 196.51
  C 341.10 207.24 329.37 207.23 319.27 205.91
  Q 315.43 203.94 322.76 204.45
  Q 331.64 205.07 339.01 199.53
  Q 342.87 196.63 344.82 192.12
  Q 347.43 186.11 347.47 179.35
  Q 347.47 178.73 347.75 179.29
  C 349.00 181.77 347.61 189.57 347.01 192.63
  Z"
/>
<path fill="#6e95a6" d="
  M 347.01 192.63
  L 351.03 197.97
  Q 350.24 201.66 348.74 204.21
  C 341.39 216.63 329.98 214.10 317.15 214.35
  Q 314.48 213.45 311.75 213.92
  Q 316.87 210.48 319.27 205.91
  C 329.37 207.23 341.10 207.24 345.43 196.51
  Q 346.18 194.65 347.01 192.63
  Z"
/>
<path fill="#ffffff" d="
  M 351.03 197.97
  Q 353.30 201.23 353.86 204.44
  C 352.94 215.76 343.78 221.24 333.25 221.21
  C 328.14 221.20 323.00 220.99 317.89 221.15
  Q 315.22 221.23 315.15 219.63
  L 317.15 214.35
  C 329.98 214.10 341.39 216.63 348.74 204.21
  Q 350.24 201.66 351.03 197.97
  Z"
/>
<path fill="#6e95a6" d="
  M 353.86 204.44
  C 359.34 217.81 348.22 228.38 335.50 228.52
  Q 304.43 228.87 273.36 228.77
  L 273.46 221.75
  A 0.58 0.57 0.5 0 1 274.04 221.19
  Q 292.29 221.27 310.49 221.44
  Q 315.22 221.49 315.15 219.63
  Q 315.22 221.23 317.89 221.15
  C 323.00 220.99 328.14 221.20 333.25 221.21
  C 343.78 221.24 352.94 215.76 353.86 204.44
  Z"
/>
<path fill="#bbd0d7" d="
  M 173.92 220.46
  C 174.57 222.88 175.20 227.03 178.02 226.67
  Q 175.20 232.60 175.07 237.28
  Q 175.01 239.72 174.14 237.43
  C 172.98 234.39 171.15 230.38 171.11 227.24
  Q 171.09 225.76 171.14 224.26
  Q 172.22 221.87 173.92 220.46
  Z"
/>
<path fill="#6e95a6" d="
  M 229.22 228.99
  Q 215.62 228.71 202.00 229.16
  Q 200.70 229.21 199.50 229.74
  Q 198.89 230.01 199.55 230.10
  L 202.10 230.46
  C 199.92 230.71 197.53 230.38 195.63 230.68
  C 185.47 232.31 177.73 240.64 178.01 251.27
  Q 177.68 251.12 177.58 250.59
  Q 177.53 250.32 177.29 250.45
  Q 177.18 250.51 177.04 250.58
  Q 176.88 250.65 176.76 250.51
  Q 175.08 248.43 173.47 246.32
  Q 165.42 235.86 171.14 224.26
  Q 171.09 225.76 171.11 227.24
  C 171.15 230.38 172.98 234.39 174.14 237.43
  Q 175.01 239.72 175.07 237.28
  Q 175.20 232.60 178.02 226.67
  Q 182.78 221.24 189.25 221.24
  Q 219.73 221.24 250.22 221.23
  Q 250.47 221.23 250.47 221.48
  L 250.42 228.97
  Q 250.42 229.18 250.20 229.18
  L 229.22 228.99
  Z"
/>
<path fill="#03293f" d="
  M 229.22 228.99
  L 229.15 244.37
  Q 229.15 244.95 228.56 244.96
  L 220.10 245.07
  Q 217.13 245.57 214.20 245.16
  Q 211.94 244.85 210.36 245.36
  Q 208.33 246.02 206.31 246.79
  A 0.74 0.72 79.3 0 0 205.84 247.49
  L 206.20 260.93
  C 206.33 266.79 205.87 273.09 206.82 278.33
  C 209.66 294.09 218.58 306.22 231.97 314.58
  C 243.96 322.08 258.38 324.22 272.47 321.90
  C 282.22 320.30 290.69 316.02 298.35 310.00
  C 300.77 308.10 302.88 305.49 305.11 303.17
  C 311.83 296.15 315.84 287.01 317.65 277.50
  Q 318.37 273.71 317.93 263.90
  L 319.73 264.31
  C 319.53 268.04 319.79 272.30 319.41 275.57
  C 318.29 285.08 313.62 296.43 307.04 303.04
  C 304.04 306.06 301.21 309.49 297.96 311.94
  Q 288.75 318.90 279.99 321.43
  Q 265.17 325.72 247.30 322.49
  C 239.06 321.00 229.93 315.30 223.74 310.17
  C 220.33 307.34 217.31 303.49 214.31 299.93
  Q 209.38 294.08 205.95 282.74
  C 203.61 270.48 206.53 257.36 203.28 245.85
  Q 201.26 238.65 197.04 232.51
  Q 200.45 231.19 205.03 231.73
  Q 207.07 231.98 205.10 231.38
  L 202.10 230.46
  L 199.55 230.10
  Q 198.89 230.01 199.50 229.74
  Q 200.70 229.21 202.00 229.16
  Q 215.62 228.71 229.22 228.99
  Z"
/>
<path fill="#ffffff" d="
  M 202.10 230.46
  L 205.10 231.38
  Q 207.07 231.98 205.03 231.73
  Q 200.45 231.19 197.04 232.51
  L 192.31 235.93
  C 185.53 241.34 180.87 246.70 178.56 255.28
  Q 178.41 255.85 178.27 255.28
  Q 177.79 253.31 178.01 251.27
  C 177.73 240.64 185.47 232.31 195.63 230.68
  C 197.53 230.38 199.92 230.71 202.10 230.46
  Z"
/>
<path fill="#6e95a6" d="
  M 197.04 232.51
  Q 201.26 238.65 203.28 245.85
  C 206.53 257.36 203.61 270.48 205.95 282.74
  Q 204.61 281.06 202.87 282.43
  A 1.41 1.41 0.0 0 1 200.73 281.94
  Q 198.84 278.12 198.83 273.25
  Q 198.80 263.57 198.69 253.85
  A 0.80 0.80 0.0 0 0 197.80 253.06
  L 194.45 253.46
  Q 194.04 253.51 193.88 253.88
  Q 193.57 254.59 192.98 255.03
  Q 192.57 255.33 192.54 255.84
  L 192.37 258.54
  Q 192.32 249.03 192.17 239.53
  C 192.16 238.62 192.54 237.89 192.74 236.98
  Q 193.01 235.71 192.31 235.93
  L 197.04 232.51
  Z"
/>
<path fill="#075e7c" d="
  M 220.10 245.07
  L 220.01 256.96
  Q 210.07 254.29 206.20 260.93
  L 205.84 247.49
  A 0.74 0.72 79.3 0 1 206.31 246.79
  Q 208.33 246.02 210.36 245.36
  Q 211.94 244.85 214.20 245.16
  Q 217.13 245.57 220.10 245.07
  Z"
/>
<path fill="#bbd0d7" d="
  M 205.95 282.74
  Q 209.38 294.08 214.31 299.93
  C 217.31 303.49 220.33 307.34 223.74 310.17
  C 229.93 315.30 239.06 321.00 247.30 322.49
  Q 265.17 325.72 279.99 321.43
  Q 288.75 318.90 297.96 311.94
  C 301.21 309.49 304.04 306.06 307.04 303.04
  C 313.62 296.43 318.29 285.08 319.41 275.57
  C 319.79 272.30 319.53 268.04 319.73 264.31
  L 326.63 264.21
  Q 326.83 270.25 326.25 276.16
  C 325.84 280.44 324.22 284.47 322.99 288.70
  C 319.76 299.76 311.34 309.71 302.64 316.96
  C 296.62 321.97 285.95 326.73 279.25 328.48
  C 261.78 333.05 246.95 330.44 230.82 323.03
  C 221.82 318.89 216.68 313.03 209.91 305.06
  Q 202.45 296.29 199.27 283.37
  Q 199.06 282.55 198.61 282.26
  Q 198.08 281.92 197.32 282.17
  A 1.18 1.14 49.0 0 1 196.42 282.09
  Q 194.92 281.28 192.88 281.82
  L 192.37 258.54
  L 192.54 255.84
  Q 192.57 255.33 192.98 255.03
  Q 193.57 254.59 193.88 253.88
  Q 194.04 253.51 194.45 253.46
  L 197.80 253.06
  A 0.80 0.80 0.0 0 1 198.69 253.85
  Q 198.80 263.57 198.83 273.25
  Q 198.84 278.12 200.73 281.94
  A 1.41 1.41 0.0 0 0 202.87 282.43
  Q 204.61 281.06 205.95 282.74
  Z"
/>
<path fill="#0eaec5" d="
  M 220.01 256.96
  Q 220.09 264.39 220.17 272.24
  C 220.38 291.05 238.75 305.41 255.49 307.49
  C 273.90 309.77 292.51 301.84 300.67 284.81
  C 303.59 278.70 303.40 271.27 303.10 264.53
  A 0.58 0.57 89.0 0 1 303.67 263.93
  L 317.93 263.90
  Q 318.37 273.71 317.65 277.50
  C 315.84 287.01 311.83 296.15 305.11 303.17
  C 302.88 305.49 300.77 308.10 298.35 310.00
  C 290.69 316.02 282.22 320.30 272.47 321.90
  C 258.38 324.22 243.96 322.08 231.97 314.58
  C 218.58 306.22 209.66 294.09 206.82 278.33
  C 205.87 273.09 206.33 266.79 206.20 260.93
  Q 210.07 254.29 220.01 256.96
  Z"
/>
<path fill="#6e95a6" d="
  M 331.86 264.20
  Q 332.54 275.88 331.21 282.00
  C 320.29 332.26 261.83 353.08 220.39 324.10
  Q 205.26 313.52 197.98 298.49
  Q 194.88 292.11 192.88 281.82
  Q 194.92 281.28 196.42 282.09
  A 1.18 1.14 49.0 0 0 197.32 282.17
  Q 198.08 281.92 198.61 282.26
  Q 199.06 282.55 199.27 283.37
  Q 202.45 296.29 209.91 305.06
  C 216.68 313.03 221.82 318.89 230.82 323.03
  C 246.95 330.44 261.78 333.05 279.25 328.48
  C 285.95 326.73 296.62 321.97 302.64 316.96
  C 311.34 309.71 319.76 299.76 322.99 288.70
  C 324.22 284.47 325.84 280.44 326.25 276.16
  Q 326.83 270.25 326.63 264.21
  L 331.86 264.20
  Z"
/>
<circle fill="#03293f" cx="199.59" cy="380.09" r="5.50"/>
<circle fill="#03293f" cx="235.28" cy="380.07" r="5.55"/>
<circle fill="#03293f" cx="316.09" cy="380.11" r="5.66"/>
<path fill="#03293f" d="
  M 135.45 386.89
  C 134.27 390.68 137.48 392.37 140.49 393.02
  C 147.53 394.53 156.11 396.24 156.93 404.73
  C 157.78 413.68 152.42 418.67 143.99 420.00
  Q 132.71 421.79 124.32 412.63
  Q 123.30 411.51 124.38 410.45
  L 129.09 405.82
  A 1.29 1.29 0.0 0 1 130.85 405.78
  Q 134.39 408.96 136.19 409.81
  C 138.89 411.08 145.48 411.72 146.37 407.73
  C 147.20 404.04 139.38 402.83 136.25 401.96
  C 116.20 396.40 124.87 372.40 143.50 375.51
  Q 151.03 376.77 155.79 382.15
  Q 156.39 382.82 155.73 383.44
  L 150.32 388.56
  Q 149.71 389.13 149.15 388.52
  Q 145.16 384.22 138.99 384.78
  C 137.52 384.92 135.95 385.31 135.45 386.89
  Z"
/>
<path fill="#03293f" d="
  M 291.54 409.92
  L 306.66 409.95
  A 0.60 0.60 0.0 0 1 307.26 410.55
  L 307.29 418.67
  A 0.60 0.60 0.0 0 1 306.69 419.27
  L 281.75 419.32
  A 0.60 0.60 0.0 0 1 281.15 418.72
  L 281.13 375.90
  A 0.60 0.60 0.0 0 1 281.73 375.30
  L 290.37 375.29
  A 0.60 0.60 0.0 0 1 290.97 375.89
  L 290.94 409.32
  A 0.60 0.60 0.0 0 0 291.54 409.92
  Z"
/>
<path fill="#03293f" d="
  M 368.97 399.68
  L 377.52 389.33
  A 1.70 1.67 -69.9 0 1 378.82 388.71
  L 388.67 388.64
  A 0.29 0.28 -71.7 0 1 388.90 389.10
  L 378.90 402.02
  Q 378.58 402.43 378.83 402.89
  C 379.94 404.93 381.86 406.62 382.95 408.22
  Q 386.57 413.57 390.35 419.21
  A 0.13 0.13 0.0 0 1 390.24 419.41
  L 379.88 419.35
  A 0.63 0.62 71.1 0 1 379.38 419.10
  L 371.69 408.54
  Q 371.36 408.09 371.04 408.55
  Q 370.21 409.72 369.00 410.53
  Q 368.61 410.79 368.62 411.26
  L 368.64 418.19
  Q 368.64 419.28 367.56 419.28
  L 360.01 419.30
  A 0.80 0.79 -0.0 0 1 359.21 418.51
  L 359.07 376.24
  Q 359.07 375.32 359.98 375.31
  L 367.65 375.25
  A 0.90 0.90 0.0 0 1 368.55 376.15
  L 368.50 399.51
  Q 368.50 400.25 368.97 399.68
  Z"
/>
<path fill="#03293f" d="
  M 257.47 388.51
  L 261.97 388.49
  Q 263.46 388.49 263.46 389.97
  L 263.47 394.66
  Q 263.47 396.04 262.09 396.08
  L 257.23 396.23
  A 0.30 0.30 0.0 0 0 256.94 396.53
  Q 256.86 401.82 256.96 407.15
  C 257.04 410.94 259.82 410.54 262.58 410.49
  A 0.58 0.58 0.0 0 1 263.18 411.04
  L 263.57 417.41
  Q 263.60 417.89 263.21 418.16
  C 257.71 422.05 250.44 419.42 248.13 413.38
  C 246.54 409.25 247.24 401.74 247.25 396.85
  Q 247.25 396.30 246.70 396.29
  L 243.71 396.22
  Q 242.73 396.20 242.72 395.21
  L 242.68 389.73
  Q 242.67 388.63 243.77 388.59
  L 246.83 388.48
  Q 247.37 388.46 247.37 387.92
  L 247.36 380.39
  A 0.35 0.35 0.0 0 1 247.71 380.04
  L 256.44 380.10
  A 0.35 0.35 0.0 0 1 256.79 380.44
  L 256.91 387.97
  Q 256.92 388.51 257.47 388.51
  Z"
/>
<path fill="#03293f" d="
  M 171.26 391.36
  C 178.06 384.68 187.45 388.53 190.81 396.60
  Q 194.17 404.64 190.56 411.78
  C 187.01 418.83 178.03 422.72 171.45 417.02
  Q 170.97 416.60 170.97 417.24
  L 171.00 429.50
  A 1.00 1.00 0.0 0 1 170.00 430.50
  L 162.47 430.52
  Q 161.42 430.52 161.43 429.47
  L 161.48 389.01
  A 0.50 0.49 0.6 0 1 161.99 388.52
  L 170.14 388.55
  Q 170.68 388.55 170.81 389.07
  Q 171.07 390.08 170.78 391.08
  Q 170.49 392.12 171.26 391.36
  Z
  M 177.2543 410.7005
  A 6.96 5.82 87.0 0 0 182.7020 403.4454
  A 6.96 5.82 87.0 0 0 176.5257 396.7995
  A 6.96 5.82 87.0 0 0 171.0780 404.0546
  A 6.96 5.82 87.0 0 0 177.2543 410.7005
  Z"
/>
<path fill="#03293f" d="
  M 334.62 391.20
  C 342.49 384.21 353.92 389.30 354.26 399.75
  Q 354.56 408.79 354.43 418.14
  A 1.23 1.23 0.0 0 1 353.19 419.35
  L 346.24 419.33
  Q 344.98 419.33 344.97 418.07
  Q 344.95 411.61 344.95 404.75
  C 344.96 400.83 344.24 395.94 338.76 397.09
  Q 334.74 397.94 334.65 403.00
  Q 334.51 411.00 334.52 418.24
  A 1.05 1.05 0.0 0 1 333.47 419.29
  L 326.00 419.29
  Q 324.95 419.29 324.95 418.25
  L 324.93 389.49
  Q 324.93 388.67 325.76 388.66
  L 333.43 388.57
  A 0.81 0.81 0.0 0 1 334.25 389.44
  L 334.16 390.97
  Q 334.12 391.64 334.62 391.20
  Z"
/>
<path fill="#03293f" d="
  M 218.45 391.51
  Q 222.04 387.93 227.22 388.38
  Q 228.84 388.52 228.85 390.14
  L 228.92 396.23
  Q 228.94 397.94 227.36 397.28
  Q 225.70 396.59 222.67 397.43
  Q 217.78 398.77 217.92 404.00
  Q 218.13 411.31 218.19 418.08
  Q 218.20 419.32 216.96 419.31
  L 209.99 419.27
  Q 208.72 419.26 208.72 417.99
  L 208.71 389.43
  Q 208.71 388.58 209.57 388.58
  L 216.99 388.61
  A 0.90 0.90 0.0 0 1 217.88 389.49
  L 217.91 391.29
  Q 217.92 392.04 218.45 391.51
  Z"
/>
<rect fill="#03293f" x="311.19" y="388.65" width="9.40" height="30.68" rx="0.88"/>
<rect fill="#03293f" x="195.19" y="388.75" width="8.96" height="30.50" rx="0.60"/>
<rect fill="#03293f" x="-4.59" y="-15.28" transform="translate(235.66,404.02) rotate(-0.1)" width="9.18" height="30.56" rx="0.74"/>
</svg>
